<?xml version="1.0" standalone="no"?><!DOCTYPE svg PUBLIC "-//W3C//DTD SVG 1.1//EN" "http://www.w3.org/Graphics/SVG/1.1/DTD/svg11.dtd"><svg t="1711626026105" class="icon" viewBox="0 0 1024 1024" version="1.1" xmlns="http://www.w3.org/2000/svg" p-id="8366" xmlns:xlink="http://www.w3.org/1999/xlink" width="200" height="200"><path d="M905.380392 531.053961l-16.096607 0 0 245.480924c0 71.640644 16.096607 132.808772 16.096607 132.808772 0 17.704221-14.486946 32.202423-32.19833 32.202423l-692.195012 0c-17.702174 0-32.185027-14.497179-32.185027-32.202423 0 0 16.096607-58.752102 16.096607-129.58945L164.898631 531.053961l-16.096607 0c-17.711384 0-32.19526-14.491039-32.19526-32.202423L116.606765 337.882404c0-17.706267 14.482853-32.199353 32.19526-32.199353l273.653567 0L422.455591 128.61424c0-44.268226 36.219923-80.488149 80.495312-80.488149l48.28675 0c44.270273 0 80.486102 36.220946 80.486102 80.488149l0 177.068811 273.65766 0c17.711384 0 32.194236 14.482853 32.194236 32.199353L937.575652 498.859725C937.574628 516.561899 923.088706 531.053961 905.380392 531.053961L905.380392 531.053961 905.380392 531.053961 905.380392 531.053961zM350.012675 909.342634 350.012675 696.04776c0-6.438643 5.64558-12.065803 12.075013-12.065803l8.045233 0c6.447852 0 12.0832 5.627161 12.0832 12.065803l0 213.294874 136.827295 0L519.043417 696.04776c0-6.438643 5.636371-12.065803 12.069897-12.065803l8.040117 0c6.447852 0 12.084223 5.627161 12.084223 12.065803l0 213.294874 128.773875 0L680.011528 696.04776c0-6.438643 5.636371-12.065803 12.07092-12.065803l8.052396 0c6.438643 0 12.07092 5.627161 12.07092 12.065803l0 213.294874 160.977321 0c0 0-16.08842-57.948807-16.08842-129.58945L857.094666 531.052938l-660.001799 0 0 248.700245c0 71.640644-16.105816 129.58945-16.105816 129.58945L350.012675 909.342634 350.012675 909.342634 350.012675 909.342634 350.012675 909.342634zM905.380392 353.97594c0-8.855692-7.241938-16.092513-16.096607-16.092513L599.528496 337.883427 599.528496 136.663566c0-31.389918-24.952298-56.339146-56.344263-56.339146l-32.190143 0c-31.391964 0-56.345286 24.948205-56.345286 56.339146L454.648804 337.883427 164.898631 337.883427c-8.859785 0-16.101723 7.237845-16.101723 16.092513l0 128.777969c0 8.860808 7.241938 16.105816 16.101723 16.105816l32.194236 0 659.995659 0 32.19526 0c8.855692 0 16.096607-7.246031 16.096607-16.105816L905.380392 353.97594 905.380392 353.97594 905.380392 353.97594 905.380392 353.97594zM905.380392 531.053961l-16.096607 0 0 245.480924c0 71.640644 16.096607 132.808772 16.096607 132.808772 0 17.704221-14.486946 32.202423-32.19833 32.202423l-692.195012 0c-17.702174 0-32.185027-14.497179-32.185027-32.202423 0 0 16.096607-58.752102 16.096607-129.58945L164.898631 531.053961l-16.096607 0c-17.711384 0-32.19526-14.491039-32.19526-32.202423L116.606765 337.882404c0-17.706267 14.482853-32.199353 32.19526-32.199353l273.653567 0L422.455591 128.61424c0-44.268226 36.219923-80.488149 80.495312-80.488149l48.28675 0c44.270273 0 80.486102 36.220946 80.486102 80.488149l0 177.068811 273.65766 0c17.711384 0 32.194236 14.482853 32.194236 32.199353L937.575652 498.859725C937.574628 516.561899 923.088706 531.053961 905.380392 531.053961L905.380392 531.053961 905.380392 531.053961 905.380392 531.053961zM350.012675 899.004171 350.012675 696.04776c0-6.438643 5.64558-12.065803 12.075013-12.065803l8.045233 0c6.447852 0 12.0832 5.627161 12.0832 12.065803l0 202.956412 136.827295 0L519.043417 696.04776c0-6.438643 5.636371-12.065803 12.069897-12.065803l8.040117 0c6.447852 0 12.084223 5.627161 12.084223 12.065803l0 202.956412 128.773875 0L680.011528 696.04776c0-6.438643 5.636371-12.065803 12.07092-12.065803l8.052396 0c6.438643 0 12.07092 5.627161 12.07092 12.065803l0 202.956412 150.647045 0c0 0-16.09763-47.610344-16.09763-119.249965L846.75518 531.053961l-639.331014 0 0 248.700245c0 71.640644-16.096607 119.249965-16.096607 119.249965L350.012675 899.004171l0 10.338463L350.012675 899.004171 350.012675 899.004171zM895.046023 364.31031c0-8.855692-7.240915-16.093537-16.096607-16.093537L589.190033 348.216773 589.190033 136.663566c0-31.389918-24.948205-46.0058-56.336076-46.0058l-11.530614 0c-31.386848 0-56.344263 14.616906-56.344263 46.0058l0 211.553207L175.227883 348.216773c-8.855692 0-16.096607 7.237845-16.096607 16.093537l0 108.113323c0 8.855692 7.241938 16.09763 16.096607 16.09763l32.19526 0 639.331014 0 32.19526 0c8.856715 0 16.096607-7.241938 16.096607-16.09763L895.046023 364.31031l10.335393 0L895.046023 364.31031 895.046023 364.31031z" p-id="8367"></path></svg>