<?xml version="1.0" standalone="no"?><!DOCTYPE svg PUBLIC "-//W3C//DTD SVG 1.1//EN" "http://www.w3.org/Graphics/SVG/1.1/DTD/svg11.dtd"><svg t="1713234289722" class="icon" viewBox="0 0 1024 1024" version="1.1" xmlns="http://www.w3.org/2000/svg" p-id="4281" xmlns:xlink="http://www.w3.org/1999/xlink" width="200" height="200"><path d="M703.04 650.88a35.968 35.968 0 0 0 23.424 8.896c19.84 0 35.84-15.808 35.84-35.2a34.752 34.752 0 0 0-14.848-28.416l0.064-0.384a409.728 409.728 0 0 0-108.672-56.96c84.992-51.584 142.784-142.272 142.784-248.96C781.632 128 647.872 0 485.184 0c-162.624 0-296.32 129.856-296.32 291.648 0 104.96 56 197.312 140.992 247.168-244.032 87.04-265.664 334.272-265.664 337.792-1.856 19.584 12.608 37.312 32.512 37.312a36.288 36.288 0 0 0 39.68-32c0-12.416 27.136-282.688 345.216-300.48 7.936 0 122.432-4.16 221.312 69.568l0.128-0.064zM485.12 510.4c-122.88 0-224-97.792-224-220.48 0-122.688 101.12-218.752 224-218.752 122.944 0 224.128 97.792 224.128 220.544 0 122.624-101.12 218.688-224.128 218.688z m427.264 121.024a71.36 71.36 0 0 0-89.408 69.504c0 32.512 21.248 60.096 50.048 68.928a269.12 269.12 0 0 1-86.784 89.472 70.4 70.4 0 0 0-64.768-43.2 71.168 71.168 0 0 0-68.992 85.44c6.016 33.088 34.176 58.24 68.096 58.496 19.328 0 30.016-5.12 39.488-8.576a314.944 314.944 0 0 0 200.896-229.12c0.96-4.544 3.008-14.144 3.008-21.376 0-33.088-21.952-60.928-51.584-69.568z" fill="#d81e06" p-id="4282"></path></svg>