<?xml version="1.0" standalone="no"?><!DOCTYPE svg PUBLIC "-//W3C//DTD SVG 1.1//EN" "http://www.w3.org/Graphics/SVG/1.1/DTD/svg11.dtd"><svg t="1713330790954" class="icon" viewBox="0 0 2576 1024" version="1.1" xmlns="http://www.w3.org/2000/svg" p-id="8247" xmlns:xlink="http://www.w3.org/1999/xlink" width="503.125" height="200"><path d="M2483.567094 507.904l-31.49283-0.025761c-26.636881-5.834868-66.218667-10.317283-124.631748-11.991748-60.370918-1.80327-224.700377-12.80322-433.081158-21.729409-177.738063-21.639245-384.933836-34.210616-527.701333-56.506768-173.191245-27.049057-455.454591-50.44005-696.178314 0-240.685082 50.388528-360.216151 60.641409-360.216151 60.641409v113.825007s119.531069 10.214239 360.216151 60.577006c240.723723 50.42717 522.407447 22.837132 696.178314 0 143.025107-18.779774 349.96327-16.152151 527.701333-37.842918 214.949836-12.597132 372.736-38.564226 433.081158-40.328856 58.413082-1.687346 97.969107-6.169761 124.709031-12.017509l31.415547-0.025761s21.136906-12.828981 18.135749-27.306667c3.001157-14.387522-18.135748-27.268025-18.135749-27.268025z" p-id="8248"></path><path d="M219.676981 389.609459c-80.38722 0-145.562566 65.213987-145.562566 145.601208 0 80.438742 65.175346 145.601208 145.562566 145.601207 80.425862 0 145.601208-65.175346 145.601208-145.601207 0-80.38722-65.188226-145.601208-145.601208-145.601208z m0 228.628931a82.989082 82.989082 0 0 1-83.001962-83.027723 82.963321 82.963321 0 0 1 83.001962-83.001963 83.001962 83.001962 0 0 1 83.040604 83.001963 83.001962 83.001962 0 0 1-83.040604 83.027723z" p-id="8249"></path></svg>