<?xml version="1.0" standalone="no"?><!DOCTYPE svg PUBLIC "-//W3C//DTD SVG 1.1//EN" "http://www.w3.org/Graphics/SVG/1.1/DTD/svg11.dtd"><svg t="1711456601499" class="icon" viewBox="0 0 1024 1024" version="1.1" xmlns="http://www.w3.org/2000/svg" p-id="1463" xmlns:xlink="http://www.w3.org/1999/xlink" width="200" height="200"><path d="M634.9 471H389.1C231 471 102.4 599.7 102.4 757.8v122.9c0 67.8 55.1 122.9 122.9 122.9h573.4c67.8 0 122.9-55.1 122.9-122.9V757.8C921.6 599.7 793 471 634.9 471z m204.8 409.6c0 22.6-18.4 41-41 41H225.3c-22.6 0-41-18.4-41-41V757.8c0-112.9 91.9-204.8 204.8-204.8h245.8c112.9 0 204.8 91.9 204.8 204.8v122.8zM512 430.1c113.1 0 204.8-91.7 204.8-204.8S625.1 20.5 512 20.5s-204.8 91.7-204.8 204.8S398.9 430.1 512 430.1z m0-327.7c67.8 0 122.9 55.1 122.9 122.9S579.8 348.2 512 348.2 389.1 293 389.1 225.3 444.2 102.4 512 102.4z" fill="#221714" p-id="1464"></path></svg>