<?xml version="1.0" standalone="no"?><!DOCTYPE svg PUBLIC "-//W3C//DTD SVG 1.1//EN" "http://www.w3.org/Graphics/SVG/1.1/DTD/svg11.dtd"><svg t="1713330741573" class="icon" viewBox="0 0 1025 1024" version="1.1" xmlns="http://www.w3.org/2000/svg" p-id="6264" xmlns:xlink="http://www.w3.org/1999/xlink" width="200.1953125" height="200"><path d="M1019.500858 516.728433 953.312254 516.728433C950.701018 516.728433 948.584609 514.612024 948.584609 512.000788 948.584609 509.391128 950.701018 507.274719 953.312254 507.274719L1019.500858 507.274719C1022.112094 507.274719 1024.228503 509.391128 1024.228503 512.000788 1024.228503 514.612024 1022.112094 516.728433 1019.500858 516.728433ZM953.887451 262.459933 896.566332 295.545567C894.304942 296.851973 891.414775 296.07664 890.10837 293.815249 888.801964 291.555435 889.577297 288.663692 891.838688 287.358862L949.159806 254.271652C951.421196 252.966822 954.311363 253.74058 955.617769 256.00197 956.924175 258.26336 956.148841 261.153527 953.887451 262.459933ZM882.599294 320.786463C880.97456 318.956865 879.639788 317.834837 878.596554 317.418804 877.551745 317.002772 876.319405 317.20606 874.901112 318.023943L820.717574 349.306769C819.297705 350.127803 818.542857 351.071756 818.451456 352.143356 818.361631 353.214955 818.629531 354.951577 819.259884 357.354797 819.431655 357.981997 819.023501 358.583984 818.030696 359.156029 817.603632 359.401867 817.003221 359.67607 816.232615 359.975488 815.397398 358.201045 814.54327 356.437633 813.673383 354.683677 812.803496 352.929721 811.92573 351.289228 811.044813 349.760623 810.193837 348.287174 809.201031 346.692381 808.071124 344.980974 807.748068 344.492451 807.436044 344.030717 807.119291 343.559529 807.015283 343.600502 806.934913 343.638323 806.824602 343.682448 806.520456 343.033184 806.198977 342.393376 805.890104 341.747265 805.521348 341.211465 805.151015 340.670938 804.791714 340.160352 804.879964 340.089437 804.949302 340.042161 805.032824 339.975974 804.775955 339.448054 804.526966 338.915406 804.266946 338.390637 803.395483 336.635105 802.519293 334.994612 801.636799 333.466007 800.785823 331.992558 799.794594 330.397765 798.664687 328.686358 797.533204 326.973375 796.441118 325.365975 795.383701 323.865736 796.028237 323.347271 796.567188 322.964332 796.992676 322.718494 797.985482 322.144873 798.710387 322.089718 799.168969 322.554603 800.861466 324.341652 802.213572 325.454225 803.223712 325.890744 804.232276 326.327263 805.445705 326.136582 806.865575 325.315547L861.049112 294.032721C862.468982 293.213263 863.258498 292.247247 863.420814 291.134675 863.581554 290.022102 863.278985 288.305967 862.506803 285.98627 862.387036 285.617513 862.473709 285.275547 862.766823 284.961946 863.058361 284.64677 863.417662 284.367839 863.843151 284.122002 864.270214 283.876164 864.867474 283.601961 865.641231 283.302543 866.443355 285.023406 867.305362 286.799424 868.224101 288.635327 869.141265 290.469653 870.009575 292.097538 870.829034 293.517408 871.616975 294.882121 872.576686 296.421758 873.708169 298.134741 874.065895 298.675268 874.418892 299.17955 874.775041 299.710623 874.87117 299.672801 874.946812 299.636556 875.049245 299.597159 875.323448 300.183387 875.643352 300.816891 875.930163 301.417302 876.313102 301.978316 876.699193 302.569272 877.082132 303.119255 876.995459 303.188593 876.92612 303.23587 876.842598 303.302057 877.112074 303.850464 877.350032 304.368929 877.630539 304.929943 878.549278 306.764269 879.417589 308.392154 880.237047 309.812024 881.024988 311.176737 881.9847 312.714798 883.114607 314.427781 884.24609 316.140764 885.369694 317.80332 886.490145 319.412295 885.842458 319.932336 885.306658 320.313699 884.88117 320.559536 883.815874 321.17413 883.054723 321.249773 882.599294 320.786463ZM872.293028 303.535287C871.073295 302.27931 870.031638 301.461427 869.188541 301.124188 868.143731 300.708156 866.912968 300.911444 865.493099 301.730903L811.309561 333.013729C809.889691 333.833187 809.134844 334.77714 809.045019 335.850316 808.969376 336.72493 809.149027 338.070733 809.55718 339.83572 810.795823 341.04127 811.82645 341.83709 812.631725 342.183784 813.638714 342.620303 814.853718 342.429622 816.273588 341.610163L870.457126 310.327337C871.875419 309.507879 872.666512 308.541863 872.828828 307.429291 872.95805 306.531038 872.77052 305.219905 872.293028 303.535287ZM795.835979 699.363658C796.245708 698.775854 796.639679 698.178595 797.04468 697.586063 797.323611 696.999835 797.60727 696.40888 797.870442 695.841562 797.976026 695.882535 798.051669 695.918781 798.150949 695.959753 798.478733 695.472806 798.815971 694.990586 799.140603 694.502063 800.224809 692.871025 801.208159 691.290416 802.089077 689.763387 802.940053 688.289938 803.825699 686.633686 804.742862 684.79936 805.004458 684.274591 805.247144 683.773461 805.497709 683.262875 805.40946 683.195112 805.336969 683.144684 805.243992 683.070618 805.653722 682.481238 806.047692 681.883979 806.452694 681.293023 806.731625 680.705219 807.015283 680.114264 807.27688 679.548522 807.382464 679.587919 807.459682 679.62574 807.557387 679.665137 807.88517 679.17819 808.223984 678.69597 808.548616 678.207447 809.631247 676.576409 810.614597 674.997376 811.497091 673.468771 812.348067 671.995322 813.232136 670.33907 814.150875 668.504744 814.412472 667.979975 814.655157 667.478845 814.905723 666.968259 814.817473 666.900496 814.743407 666.850068 814.652006 666.776002 815.061735 666.186622 815.455705 665.589363 815.859131 664.998407 816.139638 664.410603 816.423297 663.821224 816.684893 663.253906 816.790477 663.294879 816.866119 663.331124 816.9654 663.370521 817.293183 662.883574 817.630422 662.40293 817.955054 661.914407 819.03926 660.281793 820.02261 658.70276 820.905104 657.174155 821.75608 655.700706 822.64015 654.044454 823.557313 652.210128 824.476052 650.374226 825.3223 648.624997 826.092906 646.95929 826.865088 647.258708 827.463923 647.532911 827.890987 647.778749 828.883793 648.35237 829.293522 648.95278 829.120175 649.581557 828.418908 651.940652 828.132097 653.667818 828.259743 654.76148 828.385814 655.85199 829.157996 656.80855 830.577865 657.628009L884.761403 688.910835C886.179697 689.730293 887.412036 689.932006 888.456846 689.515973 889.501655 689.098365 890.836427 687.977913 892.459585 686.14989 892.71803 685.861504 893.056844 685.766951 893.476029 685.86308 893.893637 685.957633 894.315973 686.129404 894.741462 686.375241 895.16695 686.621079 895.702749 687.002442 896.350437 687.522483 895.261502 689.077878 894.153658 690.712068 893.022175 692.425051 891.892268 694.136458 890.916797 695.702885 890.097338 697.122754 889.309398 698.487468 888.456846 700.088563 887.538107 701.924465 887.248144 702.50439 886.9897 703.062252 886.707617 703.637449 886.789563 703.70206 886.857326 703.74776 886.942423 703.817099 886.570515 704.348171 886.182848 704.940703 885.806213 705.490686 885.511523 706.103703 885.194771 706.73248 884.909536 707.339195 884.805528 707.298222 884.729886 707.261976 884.630605 707.222579 884.290215 707.731589 883.960855 708.196474 883.615737 708.719667 882.484254 710.431074 881.510359 711.997501 880.689325 713.41737 879.90296 714.782084 879.048832 716.381603 878.131669 718.217506 877.841707 718.799006 877.581687 719.356868 877.299604 719.932065 877.38155 719.9951 877.449312 720.042376 877.53441 720.111715 877.164078 720.642787 876.774835 721.235319 876.399775 721.785302 876.105085 722.398319 875.786757 723.027096 875.501523 723.633811 875.397515 723.592838 875.321872 723.556592 875.224168 723.517195 874.882201 724.024629 874.552842 724.49109 874.207724 725.014283 873.077817 726.72569 872.102346 728.292117 871.282888 729.711986 870.494947 731.075124 869.642395 732.676219 868.723656 734.512122 868.433694 735.093622 868.173673 735.651484 867.89159 736.225105 867.973536 736.289716 868.041299 736.336992 868.127973 736.404755 867.756065 736.935827 867.368398 737.529935 866.991762 738.078342 866.697072 738.69136 866.378744 739.321712 866.093509 739.926851 865.989501 739.885878 865.913859 739.851208 865.816154 739.810236 865.475764 740.319245 865.146405 740.785706 864.799711 741.307323 863.669804 743.020306 862.694333 744.586733 861.874874 746.006602 861.086934 747.36974 860.234382 748.970835 859.315643 750.806738 858.39848 752.641064 857.520713 754.447024 856.687072 756.221467 855.913314 755.920473 855.314479 755.647846 854.888991 755.402008 853.823695 754.787414 853.379297 754.164941 853.552644 753.53774 854.324826 751.218043 854.627395 749.500332 854.466655 748.389335 854.304339 747.275187 853.513246 746.310747 852.094953 745.491289L797.911415 714.208463C796.491546 713.389004 795.295452 713.206202 794.321557 713.664784 793.349238 714.121789 791.979797 715.221755 790.213233 716.969407 789.756228 717.432716 789.031322 717.379136 788.038517 716.805516 787.611453 716.559678 787.075653 716.176739 786.429542 715.658274 787.549993 714.047723 788.649959 712.426141 789.73259 710.796679 790.816796 709.165641 791.800146 707.585032 792.68264 706.058003 793.533616 704.582978 794.417686 702.928302 795.334849 701.093976 795.598021 700.569207 795.840707 700.068077 796.091272 699.557491 796.003022 699.488152 795.928956 699.437724 795.835979 699.363658ZM875.35339 705.205451C876.773259 706.024909 878.005599 706.226622 879.050408 705.810589 879.891929 705.473351 880.933587 704.655468 882.153319 703.399491 882.630811 701.714873 882.819917 700.40374 882.689119 699.507063 882.526803 698.392915 881.73571 697.426899 880.317417 696.609017L826.133879 665.326191C824.71401 664.505156 823.519492 664.32393 822.544021 664.782511 821.749776 665.154419 820.673449 665.983333 819.348133 667.218824 818.924221 668.893987 818.750874 670.184634 818.85173 671.056096 818.977801 672.146606 819.749983 673.103166 821.169852 673.922625L875.35339 705.205451ZM865.946953 721.500067C867.365246 722.319525 868.597585 722.519662 869.642395 722.105205 870.483916 721.767967 871.525573 720.948508 872.746882 719.694107 873.224374 718.009489 873.411904 716.698356 873.282681 715.800103 873.120366 714.687531 872.329273 713.721515 870.909404 712.902057L816.725866 681.619231C815.305997 680.799772 814.111478 680.618546 813.137583 681.075552 812.341763 681.449035 811.265436 682.277949 809.94012 683.51344 809.516207 685.188603 809.34286 686.47925 809.443717 687.349136 809.569787 688.441222 810.341969 689.396206 811.763415 690.217241L865.946953 721.500067ZM800.037279 703.643752C800.16335 704.735838 800.935532 705.690822 802.355401 706.511857L856.538939 737.794683C857.957233 738.612566 859.189572 738.814278 860.234382 738.399821 861.077478 738.062583 862.119136 737.243124 863.338868 735.988723 863.816361 734.302529 864.00389 732.991396 863.874668 732.094719 863.712352 730.980571 862.92126 730.016131 861.502966 729.196673L807.319428 697.913847C805.897983 697.094388 804.703465 696.913162 803.72957 697.370168 802.93375 697.743651 801.858999 698.570989 800.533682 699.808056 800.108194 701.481643 799.934847 702.77229 800.037279 703.643752ZM768.172953 955.405025C765.911563 956.709855 763.01982 955.936097 761.71499 953.674707L728.6199 896.367771C727.31507 894.106381 728.088828 891.216214 730.350218 889.909808 732.613184 888.604978 735.503351 889.378736 736.809757 891.640127L769.903271 948.948638C771.208101 951.208452 770.434343 954.100195 768.172953 955.405025ZM736.808181 132.363025C735.501775 134.624415 732.611608 135.398173 730.348642 134.093343 728.087252 132.786937 727.313494 129.896771 728.618324 127.63538L761.713414 70.328445C763.018244 68.067055 765.909987 67.293297 768.171377 68.598127 770.432767 69.902957 771.208101 72.7947 769.901695 75.054514L736.808181 132.363025ZM552.382755 166.78028C553.265248 167.394874 554.902589 168.03153 557.299505 168.685521 557.928282 168.850988 558.245034 169.504979 558.245034 170.652221 558.245034 171.143896 558.181999 171.801039 558.055928 172.618921 556.101835 172.453454 554.146166 172.311624 552.193649 172.188706 550.239556 172.065787 548.378439 172.004328 546.615028 172.004328 544.913076 172.004328 543.036201 172.065787 540.98913 172.188706 540.404478 172.223375 539.848192 172.264348 539.280875 172.302169 539.266692 172.412481 539.258812 172.502306 539.241478 172.618921 538.526027 172.559038 537.812153 172.516489 537.098279 172.461333 536.449015 172.513337 535.7966 172.56219 535.174127 172.618921 535.156793 172.507034 535.150489 172.423512 535.13473 172.317928 534.550078 172.276955 533.96385 172.224951 533.379198 172.188706 531.423529 172.065787 529.563989 172.004328 527.800577 172.004328 526.787285 172.004328 525.693623 172.032693 524.558989 172.076818 524.536926 172.258044 524.521167 172.423512 524.491226 172.618921 523.545697 172.536976 522.521374 172.453454 521.418257 172.373084 521.052652 172.346294 520.688623 172.335263 520.323019 172.311624 518.955154 172.406177 517.620382 172.505458 516.359677 172.618921 516.329735 172.434543 516.317128 172.28641 516.295065 172.117791 515.845939 172.100456 515.371599 172.083122 514.941383 172.065787 513.932819 172.023238 513.081843 172.004328 512.388455 172.004328 510.686503 172.004328 508.669374 172.065787 506.337069 172.188706 504.004765 172.311624 501.735495 172.453454 499.529261 172.618921 499.40319 171.801039 499.340155 171.143896 499.340155 170.652221 499.340155 169.504979 499.686849 168.850988 500.380237 168.685521 501.893083 168.275792 503.122271 167.806179 504.0678 167.271955 505.013329 166.739307 505.486093 165.940335 505.486093 164.875039 505.486093 164.057156 505.26547 163.319644 504.824223 162.662501L491.870476 136.603723 479.673152 160.572882C478.853694 162.213375 478.443965 163.483536 478.443965 164.383364 478.443965 166.515532 480.082882 167.948008 483.360715 168.685521 484.054103 168.850988 484.400797 169.504979 484.400797 170.652221 484.400797 171.143896 484.337762 171.801039 484.211691 172.618921 482.572774 172.453454 480.728993 172.311624 478.680347 172.188706 476.631701 172.065787 474.850955 172.004328 473.338108 172.004328 471.888297 172.004328 470.501521 172.0453 469.177781 172.127246 467.85404 172.207616 466.309676 172.373084 464.544689 172.618921 464.418618 171.801039 464.355583 171.104499 464.355583 170.529302 464.355583 169.383636 464.702277 168.72807 465.395665 168.562602 466.845476 168.152873 468.279528 167.560341 469.697822 166.78028 471.116115 166.00337 472.108921 165.040507 472.676238 163.891689L489.317548 131.441135 473.432661 99.728093C472.928379 98.664373 472.124679 97.781879 471.021562 97.085339 469.918445 96.390375 468.295287 95.917611 466.152088 95.671773 465.395665 95.591403 465.017453 94.853891 465.017453 93.459236 465.017453 92.967561 465.080488 92.311994 465.206559 91.492535 467.160652 91.658003 469.240816 91.799832 471.44705 91.922751 473.653284 92.04567 475.512825 92.107129 477.025671 92.107129 478.664588 92.107129 480.63444 92.04567 482.935227 91.922751 485.236014 91.799832 487.489525 91.658003 489.695759 91.492535 489.82183 92.311994 489.884865 92.967561 489.884865 93.459236 489.884865 94.688423 489.538171 95.384963 488.844783 95.548855 487.268902 95.794692 486.055473 96.124051 485.204497 96.532205 484.353521 96.94351 483.928033 97.638474 483.928033 98.621824 483.928033 98.949607 483.95955 99.297877 484.022586 99.666633 484.085621 100.03539 484.274727 100.465605 484.589903 100.95728L496.219909 123.94309 507.566257 102.309387C508.19661 101.162145 508.511786 100.139398 508.511786 99.236418 508.511786 97.435185 506.904387 96.205997 503.689588 95.548855 502.9962 95.384963 502.649506 94.688423 502.649506 93.459236 502.649506 92.967561 502.712542 92.311994 502.838612 91.492535 504.72967 91.658003 506.494658 91.799832 508.133574 91.922751 509.772491 92.04567 511.159267 92.107129 512.293902 92.107129 513.590852 92.107129 514.941383 92.03779 516.298217 91.960572 516.320279 91.802984 516.332887 91.665882 516.359677 91.492535 517.423397 91.585512 518.570638 91.656427 519.684787 91.735221 520.5137 91.659579 521.301641 91.579209 522.03285 91.492535 522.056489 91.642244 522.065944 91.768315 522.084854 91.910144 522.14789 91.913296 522.204621 91.919599 522.269233 91.922751 524.316303 92.04567 526.160084 92.107129 527.800577 92.107129 529.374883 92.107129 531.187147 92.04567 533.237369 91.922751 533.885056 91.883354 534.498074 91.829774 535.136306 91.787225 535.150489 91.683217 535.156793 91.601271 535.174127 91.492535 535.820239 91.549267 536.52781 91.588664 537.191256 91.639092 537.868885 91.588664 538.573304 91.549267 539.241478 91.492535 539.257237 91.602847 539.265116 91.686369 539.279299 91.791953 539.890741 91.832926 540.458058 91.88493 541.083683 91.922751 543.130754 92.04567 544.974535 92.107129 546.615028 92.107129 548.189334 92.107129 550.003173 92.04567 552.051819 91.922751 554.09889 91.799832 556.101835 91.658003 558.055928 91.492535 558.181999 92.311994 558.245034 92.967561 558.245034 93.459236 558.245034 94.688423 557.928282 95.384963 557.299505 95.548855 554.902589 96.04053 553.265248 96.636213 552.382755 97.331177 551.498685 98.029292 551.059014 99.197021 551.059014 100.834362L551.059014 163.400014C551.059014 165.040507 551.498685 166.165686 552.382755 166.78028ZM523.356591 100.834362C523.356591 99.197021 522.913768 98.029292 522.03285 97.331177 521.445047 96.869443 520.49479 96.456562 519.241964 96.084654 518.301163 96.343099 517.439155 96.656699 516.737888 97.085339 515.603253 97.781879 514.689242 98.828264 513.995854 100.219768L498.772838 129.228597 516.170571 164.383364C516.737888 165.532182 517.51007 166.392613 518.487117 166.964658 518.940971 167.230982 519.547685 167.487851 520.278894 167.735264 521.024286 167.446878 521.618393 167.149036 522.03285 166.841739 522.913768 166.187748 523.356591 165.040507 523.356591 163.400014L523.356591 100.834362ZM542.171042 100.834362C542.171042 99.197021 541.729795 98.029292 540.847301 97.331177 540.133427 96.770163 538.904239 96.276912 537.207015 95.848272 535.50979 96.276912 534.279026 96.770163 533.568304 97.331177 532.684234 98.029292 532.244563 99.197021 532.244563 100.834362L532.244563 163.400014C532.244563 165.040507 532.684234 166.165686 533.568304 166.78028 534.288482 167.282986 535.542884 167.799875 537.276353 168.329372 538.938908 167.859759 540.142882 167.364932 540.847301 166.841739 541.729795 166.187748 542.171042 165.040507 542.171042 163.400014L542.171042 100.834362ZM512.115827 75.626559C509.504591 75.626559 507.388182 73.51015 507.388182 70.90049L507.388182 4.726069C507.388182 2.116409 509.504591 0 512.115827 0 514.727063 0 516.843472 2.116409 516.843472 4.726069L516.843472 70.90049C516.843472 73.51015 514.727063 75.626559 512.115827 75.626559ZM293.879861 134.090192C291.61847 135.395022 288.726728 134.619688 287.421898 132.359873L254.326808 75.051362C253.021978 72.789972 253.795736 69.899805 256.057126 68.594975 258.320092 67.290145 261.210259 68.063903 262.516664 70.325293L295.610179 127.632229C296.916584 129.893619 296.141251 132.783786 293.879861 134.090192ZM287.420322 891.644854C288.726728 889.383464 291.61847 888.60813 293.878285 889.914536 296.141251 891.219366 296.915009 894.109533 295.610179 896.370923L262.515089 953.679434C261.210259 955.939249 258.318516 956.714582 256.057126 955.408176 253.795736 954.103346 253.020402 951.21318 254.326808 948.951789L287.420322 891.644854ZM242.496664 734.994341C240.87193 733.164743 239.537159 732.044291 238.495501 731.628258 237.449115 731.21065 236.218352 731.413938 234.798483 732.233397L180.614945 763.516223C179.195075 764.335681 178.440228 765.279634 178.350403 766.35281 178.259002 767.422833 178.526902 769.159455 179.15883 771.562674 179.330601 772.189875 178.920872 772.791862 177.928067 773.365483 177.502579 773.61132 176.902168 773.883948 176.129986 774.184941 175.296344 772.408923 174.442216 770.645511 173.57233 768.893131 172.700867 767.139175 171.824677 765.497106 170.942183 763.968501 170.091207 762.495052 169.099978 760.900259 167.970071 759.188852 167.647015 758.700329 167.333414 758.238595 167.016662 757.767407 166.91423 757.80838 166.832284 757.847777 166.721972 757.890325 166.417827 757.241062 166.097923 756.601254 165.787475 755.955143 165.418718 755.419343 165.049962 754.878816 164.689085 754.36823 164.777334 754.297315 164.846673 754.250039 164.930195 754.183852 164.673326 753.657507 164.424337 753.123283 164.164316 752.598515 163.292854 750.844559 162.416664 749.20249 161.53417 747.675461 160.683194 746.200436 159.691964 744.607219 158.562057 742.894236 158.239002 742.405713 157.925401 741.945555 157.610225 741.472791 157.506217 741.515339 157.425847 741.553161 157.315535 741.595709 157.009814 740.946446 156.68991 740.306638 156.379461 739.660527 156.012281 739.126303 155.641949 738.5842 155.281072 738.073614 155.369321 738.002699 155.43866 737.955423 155.523757 737.889236 155.265313 737.362891 155.017899 736.828668 154.756303 736.303899 153.886416 734.549943 153.00865 732.907874 152.127733 731.380845 151.276757 729.907395 150.283951 728.312603 149.154044 726.601196 148.024137 724.888212 146.930475 723.279237 145.874634 721.780574 146.51917 721.260533 147.056546 720.87917 147.483609 720.633332 148.476415 720.059711 149.199745 720.004555 149.658326 720.467864 151.352399 722.25649 152.702929 723.367487 153.714645 723.804006 154.721634 724.240525 155.936638 724.049843 157.356508 723.230385L211.540046 691.947559C212.958339 691.1281 213.749432 690.162085 213.911748 689.049513 213.985814 688.537351 213.949569 687.881784 213.82665 687.11433 213.450014 686.799154 213.07653 686.528102 212.712502 686.356331 211.670844 685.866232 210.350255 685.792165 208.750735 686.132556L133.841202 702.414565C133.778167 702.304253 133.691493 702.190789 133.576454 702.07575 133.461415 701.959135 133.373165 701.847247 133.31013 701.738511 132.963436 701.1381 133.28334 700.298156 134.268266 699.220253L185.219671 644.146342C186.02337 643.244937 186.453586 642.269467 186.508742 641.218353 186.563898 640.16724 186.201445 638.556689 185.42296 636.3867 185.145604 635.743741 185.612065 635.075567 186.819191 634.379027 187.386508 634.051244 187.983767 633.77704 188.617272 633.559569 189.419395 635.280432 190.3208 637.124213 191.316757 639.097217 192.31429 641.068645 193.221998 642.764293 194.041456 644.184163 194.829397 645.548876 195.844265 647.183065 197.084484 649.08673 198.326278 650.990395 199.505038 652.747503 200.62549 654.358054 199.977802 654.87652 199.442002 655.259459 199.016514 655.505296 197.951218 656.11989 197.15855 656.140377 196.640085 655.568332 194.353481 652.591491 192.289076 651.638083 190.443718 652.703379 189.94574 652.990189 189.5171 653.310093 189.154647 653.666242L150.885938 694.320837 204.71963 682.345712C205.625762 682.114058 206.39952 681.813064 207.037752 681.444308 208.030557 680.870687 208.555326 680.059108 208.612058 679.007995 208.665638 677.956882 208.34731 676.502343 207.655498 674.64753 207.346625 673.950991 207.761082 673.274937 208.897292 672.619371 209.251866 672.414506 209.585952 672.256918 209.902705 672.148182 210.115449 672.025263 210.378621 671.908648 210.695373 671.799912 210.758408 671.908648 210.925452 672.283708 211.202807 672.925092 211.478586 673.566476 211.823704 674.330778 212.242889 675.218 212.660498 676.105221 213.134838 677.05075 213.667486 678.054586 214.198558 679.058423 214.717023 679.994497 215.221305 680.869111 215.339496 681.073976 215.454536 681.250474 215.572727 681.450611 215.757105 681.373393 215.920997 681.297751 216.132165 681.217381 216.81137 682.673495 217.556762 684.194221 218.319488 685.735433 219.310718 687.130089 219.92216 687.946395 220.150663 688.176474 220.018289 688.253692 219.865428 688.381339 219.717295 688.494802 220.268854 689.544339 220.807806 690.543448 221.319967 691.432246 222.107908 692.795383 223.06762 694.33502 224.197527 696.048003 224.555252 696.590106 224.909825 697.094388 225.265975 697.62546 225.362103 697.586063 225.43617 697.551394 225.538602 697.510421 225.812806 698.098225 226.13271 698.730153 226.421096 699.330564 226.804035 699.893154 227.190126 700.482534 227.573065 701.032516 227.484816 701.103431 227.417053 701.150708 227.333531 701.215319 227.603007 701.765301 227.840965 702.283766 228.121472 702.843204 229.038635 704.679106 229.906946 706.305416 230.72798 707.726862 231.514345 709.089999 232.474057 710.629636 233.60554 712.342619 233.963265 712.884722 234.316263 713.387428 234.673988 713.920076 234.770117 713.880679 234.844183 713.844434 234.946615 713.805037 235.220819 714.392841 235.540723 715.024769 235.827533 715.62518 236.212048 716.18777 236.598139 716.77715 236.979503 717.327132 236.892829 717.396471 236.82349 717.445324 236.739969 717.509935 237.01102 718.059917 237.248979 718.576807 237.529485 719.13782 238.446649 720.972147 239.314959 722.600032 240.134418 724.019902 240.922359 725.384615 241.88207 726.924251 243.013554 728.637235 244.143461 730.348642 245.267064 732.011197 246.387516 733.621748 245.739829 734.140213 245.205605 734.523153 244.778541 734.76899 243.714821 735.383584 242.952094 735.45765 242.496664 734.994341ZM222.783961 701.450125C221.562653 700.194147 220.520995 699.374689 219.679474 699.039026 218.634665 698.622993 217.402325 698.824706 215.984032 699.644165L161.800494 730.926991C160.380625 731.746449 159.625777 732.690402 159.534376 733.763578 159.46031 734.639768 159.63996 735.983995 160.048114 737.750558 161.285181 738.956108 162.315807 739.750352 163.121083 740.098622 164.129647 740.535141 165.343076 740.344459 166.764521 739.523425L220.948059 708.240599C222.366352 707.422716 223.157445 706.455125 223.319761 705.342553 223.448983 704.445876 223.261453 703.133167 222.783961 701.450125ZM232.190399 717.743165C230.970666 716.487187 229.929008 715.669305 229.087488 715.333642 228.041102 714.916034 226.810339 715.119322 225.392045 715.938781L171.208507 747.221607C169.787062 748.041065 169.033791 748.985018 168.94239 750.058194 168.868323 750.934384 169.047974 752.278611 169.454551 754.045174 170.693194 755.249148 171.723821 756.044968 172.529096 756.393238 173.53766 756.829757 174.751089 756.639075 176.170959 755.818041L230.354496 724.535215C231.774366 723.715757 232.563882 722.749741 232.727774 721.637169 232.856996 720.738916 232.667891 719.427783 232.190399 717.743165ZM229.440485 321.97783C228.852681 322.912328 228.290091 323.807428 227.75114 324.65998 227.209037 325.512532 226.76779 326.239014 226.421096 326.839425 225.57012 328.312874 224.61356 330.092044 223.554567 332.172208 222.495575 334.253948 221.483859 336.289987 220.524147 338.283477 219.751965 337.98406 219.151554 337.709856 218.726066 337.464019 217.73326 336.890398 217.33929 336.263197 217.542579 335.579264 217.944429 334.064842 218.152445 332.76474 218.1619 331.678957 218.174507 330.594751 217.719078 329.786323 216.795611 329.2521 216.086464 328.843946 215.33792 328.665872 214.548404 328.719452L185.504905 326.908764 200.163756 349.456478C201.173896 350.986659 202.068997 351.976313 202.849059 352.425439 204.694416 353.492311 206.755669 352.789467 209.032818 350.318485 209.522917 349.801596 210.263582 349.828386 211.256387 350.402007 211.681875 350.647844 212.219251 351.030784 212.865362 351.549249 211.902498 352.885596 210.857689 354.412626 209.726206 356.124033 208.596299 357.837016 207.652346 359.348287 206.895923 360.657844 206.171017 361.915398 205.512298 363.13513 204.922919 364.323345 204.330387 365.509984 203.700035 366.929853 203.031861 368.581377 202.259679 368.28196 201.624599 367.98727 201.12662 367.700459 200.133815 367.126838 199.739844 366.499638 199.944709 365.815705 200.315041 364.356439 200.51833 362.816802 200.551423 361.198372 200.587668 359.581517 200.25043 358.240442 199.539707 357.175146L179.757665 326.538431 144.350757 324.437781C143.176725 324.343228 142.010573 324.598521 140.855451 325.205235 139.701906 325.813526 138.480598 326.98283 137.196254 328.714724 136.748704 329.329318 135.921366 329.288345 134.714241 328.591805 134.287177 328.345968 133.751377 327.964604 133.105266 327.444563 134.224141 325.835588 135.387142 324.10527 136.597419 322.255185 137.807696 320.406676 138.791046 318.826067 139.54747 317.516509 140.365352 316.09664 141.296698 314.361594 142.341508 312.306644 143.386317 310.251695 144.388578 308.229839 145.349866 306.236348 146.122048 306.537342 146.720883 306.809969 147.147947 307.055807 148.211667 307.670401 148.641882 308.319664 148.437018 309.002021 147.861821 310.489653 147.538765 311.704658 147.467851 312.645459 147.398512 313.587836 147.787755 314.304862 148.640307 314.796537 148.923965 314.960429 149.240717 315.106986 149.592139 315.236208 149.941985 315.367007 150.410022 315.419011 150.993098 315.390645L176.714638 316.81209 163.652155 296.168041C162.974526 295.049165 162.246469 294.264376 161.463255 293.813674 159.903133 292.912269 158.035713 293.689179 155.85942 296.145978 155.370897 296.664443 154.593987 296.615591 153.530267 296.000997 153.103203 295.75516 152.567404 295.373796 151.921292 294.853755 153.010226 293.29836 154.014063 291.842246 154.940681 290.483836 155.8673 289.125426 156.614268 287.956122 157.181585 286.972771 157.999468 285.554478 158.788984 284.063694 159.550135 282.500419 160.311286 280.937145 160.966853 279.5157 161.518411 278.231356 162.290593 278.532349 162.927249 278.827039 163.422076 279.112274 163.990969 279.441633 164.361302 279.782024 164.534649 280.136597 164.707996 280.492746 164.75212 280.826833 164.663871 281.140434 163.994121 282.791957 163.678945 284.282741 163.713614 285.612786 163.74986 286.944406 164.19741 288.258691 165.057841 289.555641L182.569038 317.243882 221.712362 319.754261C222.990402 319.836207 224.121885 319.598249 225.105235 319.038811 226.091737 318.479373 227.363473 317.34001 228.925172 315.620723 229.153675 315.389069 229.462547 315.222025 229.853366 315.118017 230.244185 315.017161 230.721677 315.129048 231.288994 315.456832 231.786973 315.743642 232.359018 316.147068 233.005129 316.665533 232.459874 317.442443 231.876798 318.290267 231.255901 319.204278 230.631852 320.11829 230.026713 321.043332 229.440485 321.97783ZM127.660594 295.543992 70.341052 262.456781C68.079662 261.151951 67.304328 258.261784 68.610734 256.000394 69.915564 253.739004 72.807307 252.965246 75.068697 254.270076L132.388239 287.357287C134.651205 288.662117 135.424963 291.552283 134.120133 293.813674 132.813727 296.075064 129.921985 296.848822 127.660594 295.543992ZM75.642318 512.002364C75.642318 514.612024 73.525909 516.728433 70.914673 516.728433L4.727645 516.728433C2.116409 516.728433 0 514.612024 0 512.002364 0 509.391128 2.116409 507.274719 4.727645 507.274719L70.914673 507.274719C73.525909 507.274719 75.642318 509.391128 75.642318 512.002364ZM102.432306 512.002364C102.432306 509.391128 104.548715 507.274719 107.15995 507.274719L173.346979 507.274719C175.958215 507.274719 178.076199 509.391128 178.076199 512.002364 178.076199 514.612024 175.958215 516.728433 173.346979 516.728433L107.15995 516.728433C104.548715 516.728433 102.432306 514.612024 102.432306 512.002364ZM70.341052 761.546371 127.660594 728.45916C129.921985 727.15433 132.813727 727.928088 134.118557 730.189478 135.424963 732.450868 134.649629 735.341035 132.388239 736.645865L75.068697 769.733076C72.805731 771.037906 69.915564 770.264148 68.609158 768.002758 67.304328 765.741368 68.079662 762.851201 70.341052 761.546371ZM479.019161 853.371417C481.225396 853.494336 483.146395 853.555795 484.786888 853.555795 486.361194 853.555795 488.285345 853.494336 490.554615 853.371417 492.823884 853.248498 494.935566 853.106669 496.889659 852.941201 497.01573 853.762236 497.078765 854.416227 497.078765 854.907902 497.078765 856.137089 496.700553 856.835205 495.94413 856.997521 492.223474 857.489196 490.365509 858.801905 490.365509 860.930921 490.365509 861.506118 490.426969 862.03719 490.554615 862.528865L506.628607 915.998529 523.175365 863.389297C523.42593 862.489468 523.553576 861.668434 523.553576 860.930921 523.553576 859.785255 523.112329 858.924824 522.229836 858.349627 521.345766 857.777582 519.927473 857.32688 517.974955 856.997521 517.218532 856.917151 516.84032 856.220611 516.84032 854.907902 516.84032 854.499748 516.871838 854.130992 516.934873 853.801633 516.934873 853.555795 516.966391 853.270561 517.029426 852.941201 517.155497 852.941201 517.56365 852.98375 518.258614 853.06412 518.952002 853.147642 519.785643 853.229588 520.764266 853.309958 521.741312 853.393479 522.797153 853.454939 523.931788 853.494336 525.066422 853.536885 526.138022 853.555795 527.146586 853.555795 527.382968 853.555795 527.594137 853.544764 527.825791 853.541612 527.851005 853.344627 527.86834 853.163401 527.903009 852.941201 529.505681 853.081455 531.195026 853.196494 532.909585 853.306806 534.614689 853.14449 535.626405 853.023147 535.940006 852.941201 535.940006 853.094062 535.974675 853.291047 535.998313 853.475425 537.183376 853.522702 538.318011 853.555795 539.34391 853.555795 540.918216 853.555795 542.732055 853.494336 544.780702 853.371417 546.827772 853.248498 548.830717 853.106669 550.784811 852.941201 550.910881 853.762236 550.973916 854.416227 550.973916 854.907902 550.973916 856.137089 550.657164 856.835205 550.028387 856.997521 547.631471 857.489196 545.99413 858.084879 545.111637 858.779843 544.227567 859.477958 543.787896 860.645687 543.787896 862.283028L543.787896 924.84868C543.787896 926.489173 544.227567 927.614352 545.111637 928.228946 545.99413 928.84354 547.631471 929.480196 550.028387 930.134187 550.657164 930.299655 550.973916 930.955221 550.973916 932.100887 550.973916 932.592562 550.910881 933.249705 550.784811 934.067587 548.830717 933.90212 546.875048 933.760291 544.922531 933.637372 542.968438 933.514453 541.107322 933.452994 539.34391 933.452994 537.641958 933.452994 535.765083 933.514453 533.718013 933.637372 531.669366 933.760291 529.731032 933.90212 527.903009 934.067587 527.775363 933.249705 527.713904 932.592562 527.713904 932.100887 527.713904 930.955221 528.02908 930.299655 528.659433 930.134187 531.054773 929.562142 532.692114 928.947548 533.576183 928.290405 534.458677 927.636415 534.899924 926.489173 534.899924 924.84868L534.899924 862.283028C534.899924 860.645687 534.458677 859.477958 533.576183 858.779843 533.169606 858.459939 532.584954 858.163673 531.858472 857.886318 531.396739 858.056513 530.975979 858.244043 530.645043 858.472546 529.699514 859.129689 528.974609 860.235957 528.470327 861.791353L505.115761 934.8051C504.988115 934.8051 504.846285 934.824011 504.690273 934.866559 504.532685 934.907532 504.390856 934.928019 504.264785 934.928019 503.569821 934.928019 503.002504 934.231479 502.562833 932.8384L480.342902 861.176759C479.96469 860.031093 479.334338 859.170662 478.451844 858.595465 477.567774 858.02342 475.993469 857.531745 473.724199 857.12044 473.029235 857.04007 472.684117 856.302557 472.684117 854.907902 472.684117 854.253911 472.745577 853.598344 472.873223 852.941201 474.764281 853.106669 476.811351 853.248498 479.019161 853.371417ZM512.115827 948.373441C514.728639 948.373441 516.845048 950.48985 516.845048 953.09951L516.845048 1019.273931C516.845048 1021.883591 514.728639 1024 512.115827 1024 509.506167 1024 507.388182 1021.883591 507.388182 1019.273931L507.388182 953.09951C507.388182 950.48985 509.506167 948.373441 512.115827 948.373441ZM849.400195 516.728433C846.78896 516.728433 844.672551 514.612024 844.672551 512.002364 844.672551 509.391128 846.78896 507.274719 849.400195 507.274719L915.587224 507.274719C918.19846 507.274719 920.316444 509.391128 920.316444 512.002364 920.316444 514.612024 918.19846 516.728433 915.587224 516.728433L849.400195 516.728433ZM896.567908 728.456008 953.887451 761.543219C956.148841 762.848049 956.924175 765.739792 955.617769 767.999606 954.312939 770.260996 951.421196 771.03633 949.159806 769.729924L891.840263 736.644289C889.578873 735.337883 888.80354 732.447717 890.10837 730.186326 891.414775 727.926512 894.306518 727.151178 896.567908 728.456008Z" p-id="6265"></path></svg>