<?xml version="1.0" standalone="no"?><!DOCTYPE svg PUBLIC "-//W3C//DTD SVG 1.1//EN" "http://www.w3.org/Graphics/SVG/1.1/DTD/svg11.dtd"><svg t="1713249011349" class="icon" viewBox="0 0 1024 1024" version="1.1" xmlns="http://www.w3.org/2000/svg" p-id="3379" xmlns:xlink="http://www.w3.org/1999/xlink" width="200" height="200"><path d="M512 876.8c-40.533333 0-283.733333-181.333333-394.666667-332.8-81.066667-108.8-70.4-258.133333 25.6-354.133333C204.8 128 300.8 113.066667 379.733333 153.6l132.266667 70.4 132.266667-70.4c78.933333-40.533333 174.933333-27.733333 236.8 36.266667 96 96 106.666667 245.333333 25.6 354.133333-110.933333 149.333333-354.133333 332.8-394.666667 332.8z" fill="#24AA7D" p-id="3380"></path><path d="M776.533333 588.8H546.133333c-12.8 0-21.333333-8.533333-21.333333-21.333333s8.533333-21.333333 21.333333-21.333334h230.4c12.8 0 21.333333 8.533333 21.333334 21.333334s-8.533333 21.333333-21.333334 21.333333z" fill="#FCFCFC" p-id="3381"></path><path d="M661.333333 704c-12.8 0-21.333333-8.533333-21.333333-21.333333V452.266667c0-12.8 8.533333-21.333333 21.333333-21.333334s21.333333 8.533333 21.333334 21.333334V682.666667c0 12.8-8.533333 21.333333-21.333334 21.333333zM834.133333 388.266667c-12.8 0-21.333333-8.533333-21.333333-21.333334 0-51.2-42.666667-93.866667-93.866667-93.866666-12.8 0-21.333333-8.533333-21.333333-21.333334s8.533333-21.333333 21.333333-21.333333c74.666667 0 136.533333 61.866667 136.533334 136.533333 0 10.666667-8.533333 21.333333-21.333334 21.333334z" fill="#FCFCFC" p-id="3382"></path></svg>